<svg width="92" height="30" viewBox="0 0 92 30" fill="none" xmlns="http://www.w3.org/2000/svg">
<circle cx="78.2" cy="13" r="13" fill="#335EEA"/>
<circle cx="69.2" cy="22" r="4" fill="#335EEA"/>
<circle cx="63.2" cy="27" r="2" fill="#335EEA"/>
<path d="M69.2 17.4H71.504L72.8 12.588L74.036 15.864H74.084L77.096 12.576L75.8 17.4H78.14L80.396 9H77.78L74.924 12.252L73.808 9H71.468L69.2 17.4Z" fill="white"/>
<path d="M78.9945 17.4H85.7865L86.3145 15.42H81.8265L82.1865 14.076H86.1945L86.6865 12.252H82.6785L83.0265 10.968H87.4425L87.9825 9H81.2625L78.9945 17.4Z" fill="white"/>
<path d="M5.91198 29.324C7.38798 29.324 8.79198 29.036 9.87198 28.532L11.132 23.888C10.232 24.284 9.18798 24.5 8.32398 24.5C7.31598 24.5 6.84798 24.068 6.84798 23.348C6.84798 23.132 6.91998 22.772 6.99198 22.484L9.15198 14.384H13.688L14.948 9.704H10.412L11.744 4.772H6.27198L4.93998 9.704H2.63598L1.37598 14.384H3.67998L1.33998 23.132C1.12398 23.996 0.97998 24.752 0.97998 25.544C0.97998 27.668 2.59998 29.324 5.91198 29.324Z" fill="#161C2D"/>
<path d="M30.9058 21.26C31.5178 19.784 31.8778 18.236 31.8778 16.868C31.8778 12.584 28.9978 9.344 23.9938 9.344C20.7538 9.344 18.0178 10.64 16.0378 12.62C13.8418 14.816 12.5458 17.876 12.5458 20.864C12.5458 26.192 15.9298 29.432 21.4738 29.432C24.7498 29.432 27.1618 28.316 28.8898 26.876L26.3698 23.492C24.7858 24.608 23.5258 25.04 22.0858 25.04C19.2058 25.04 17.8378 23.528 17.6578 21.26H30.9058ZM19.7098 15.356C20.7178 14.348 22.0498 13.736 23.5618 13.736C25.7938 13.736 26.7298 14.996 26.7298 16.58C26.7298 17.048 26.6578 17.48 26.5498 17.84H18.1618C18.5218 16.868 19.0258 16.04 19.7098 15.356Z" fill="#161C2D"/>
<path d="M38.5792 9.704H32.7472L36.9592 18.92L27.5272 29H34.0432L38.9392 23.276L41.1712 29H47.0032L42.7552 19.46L51.7912 9.704H45.2752L40.7392 15.104L38.5792 9.704Z" fill="#161C2D"/>
<path d="M54.5317 29.324C56.0077 29.324 57.4117 29.036 58.4917 28.532L59.7517 23.888C58.8517 24.284 57.8077 24.5 56.9437 24.5C55.9357 24.5 55.4677 24.068 55.4677 23.348C55.4677 23.132 55.5397 22.772 55.6117 22.484L57.7717 14.384H62.3077L63.5677 9.704H59.0317L60.3637 4.772H54.8917L53.5597 9.704H51.2557L49.9957 14.384H52.2997L49.9597 23.132C49.7437 23.996 49.5997 24.752 49.5997 25.544C49.5997 27.668 51.2197 29.324 54.5317 29.324Z" fill="#161C2D"/>
</svg>
