<svg width="95" height="30" viewBox="0 0 95 30" fill="none" xmlns="http://www.w3.org/2000/svg">
<circle cx="82" cy="13" r="13" fill="#335EEA"/>
<circle cx="73" cy="22" r="4" fill="#335EEA"/>
<circle cx="67" cy="27" r="2" fill="#335EEA"/>
<path d="M73 17.4H75.304L76.6 12.588L77.836 15.864H77.884L80.896 12.576L79.6 17.4H81.94L84.196 9H81.58L78.724 12.252L77.608 9H75.268L73 17.4Z" fill="white"/>
<path d="M82.7945 17.4H89.5865L90.1145 15.42H85.6265L85.9865 14.076H89.9945L90.4865 12.252H86.4785L86.8265 10.968H91.2425L91.7825 9H85.0625L82.7945 17.4Z" fill="white"/>
<path d="M6.70399 29.396C8.10799 29.396 9.51199 29.144 10.736 28.676L12.248 23.024C11.24 23.384 10.412 23.564 9.65599 23.564C8.57599 23.564 8.10799 23.132 8.10799 22.34C8.10799 22.052 8.17999 21.62 8.28799 21.152L9.94399 14.996H14.48L15.956 9.52401H11.42L12.752 4.59201H5.91199L4.57999 9.52401H2.27599L0.799988 14.996H3.10399L1.19599 22.232C0.943988 23.168 0.799988 23.996 0.799988 24.788C0.799988 27.668 2.74399 29.396 6.70399 29.396Z" fill="#161C2D"/>
<path d="M32.6195 21.152C33.0875 19.856 33.3755 18.452 33.3755 17.12C33.3755 12.908 30.8555 9.09201 25.1315 9.09201C21.7475 9.09201 18.9395 10.388 16.9235 12.44C14.6915 14.636 13.4315 17.768 13.4315 20.828C13.4315 26.084 16.9595 29.468 22.7195 29.468C26.0675 29.468 28.6595 28.28 30.6395 26.552L27.4715 22.808C25.9955 23.888 24.7355 24.356 23.3675 24.356C20.9915 24.356 19.8035 23.06 19.6595 21.152H32.6195ZM21.5315 15.464C22.3955 14.564 23.5115 14.132 24.6635 14.132C26.4275 14.132 27.2915 15.248 27.2915 16.58C27.2915 16.976 27.2555 17.336 27.1475 17.66H20.1635C20.4875 16.76 20.9555 16.04 21.5315 15.464Z" fill="#161C2D"/>
<path d="M41.3762 9.52401H34.2842L38.3162 18.884L28.9922 29H36.6962L40.8722 24.032L42.6362 29H49.7282L45.6242 19.388L54.6962 9.52401H46.9922L43.0682 14.24L41.3762 9.52401Z" fill="#161C2D"/>
<path d="M58.3274 29.396C59.7314 29.396 61.1354 29.144 62.3594 28.676L63.8714 23.024C62.8634 23.384 62.0354 23.564 61.2794 23.564C60.1994 23.564 59.7314 23.132 59.7314 22.34C59.7314 22.052 59.8034 21.62 59.9114 21.152L61.5674 14.996H66.1034L67.5794 9.52401H63.0434L64.3754 4.59201H57.5354L56.2034 9.52401H53.8994L52.4234 14.996H54.7274L52.8194 22.232C52.5674 23.168 52.4234 23.996 52.4234 24.788C52.4234 27.668 54.3674 29.396 58.3274 29.396Z" fill="#161C2D"/>
</svg>
